<svg width="167" height="50" viewBox="0 0 167 50" fill="none" xmlns="http://www.w3.org/2000/svg">
<path fill-rule="evenodd" clip-rule="evenodd" d="M103.03 39.1026C93.4149 46.2121 79.4289 50 67.366 50C50.4662 50 35.3147 43.7646 23.7762 33.3916C22.9021 32.5758 23.6597 31.4686 24.7669 32.1096C37.1795 39.3357 52.5058 43.648 68.3566 43.648C79.021 43.648 90.7925 41.4336 101.632 36.8298C103.263 36.1888 104.604 37.9371 103.03 39.1026Z" fill="white"/>
<path fill-rule="evenodd" clip-rule="evenodd" d="M107.051 34.4988C105.827 32.9254 98.8927 33.7413 95.8042 34.1492C94.8718 34.2657 94.6969 33.4499 95.5711 32.8671C101.107 28.9627 110.14 30.1282 111.189 31.4103C112.238 32.6923 110.897 41.7832 105.711 46.0956C104.895 46.7366 104.137 46.387 104.487 45.5128C105.653 42.5991 108.275 36.1305 107.051 34.4988Z" fill="white"/>
<path fill-rule="evenodd" clip-rule="evenodd" d="M95.979 5.47785V1.68997C95.979 1.10722 96.3869 0.757569 96.9114 0.757569L113.811 0.757569C114.336 0.757569 114.802 1.1655 114.802 1.68997V4.8951C114.802 5.41958 114.336 6.11888 113.52 7.28438L104.779 19.7552C108.042 19.697 111.48 20.1632 114.394 21.7949C115.035 22.1445 115.21 22.7273 115.268 23.2517V27.2727C115.268 27.8555 114.685 28.4965 114.044 28.1468C108.858 25.4079 101.923 25.1165 96.2121 28.2051C95.6294 28.4965 94.9883 27.9137 94.9883 27.331V23.4848C94.9883 22.9021 94.9883 21.8531 95.6294 20.9207L105.769 6.41026L96.9697 6.41026C96.4452 6.41026 95.979 6.00233 95.979 5.47785V5.47785ZM34.3823 28.9627H29.2541C28.7879 28.9044 28.38 28.5548 28.3217 28.0886L28.3217 1.74825C28.3217 1.22378 28.7879 0.815847 29.3124 0.815847L34.0909 0.815847C34.6154 0.815847 34.965 1.22377 35.0233 1.68997V5.1282H35.1399C36.3636 1.80652 38.7529 0.233097 41.8998 0.233097C45.1049 0.233097 47.1445 1.80652 48.5431 5.1282C49.7669 1.80652 52.6224 0.233097 55.6527 0.233097C57.8089 0.233097 60.1399 1.10722 61.5967 3.14685C63.2284 5.3613 62.8788 8.56644 62.8788 11.4219V28.0886C62.8788 28.613 62.4126 29.021 61.8881 29.021H56.8182C56.2937 28.9627 55.8858 28.5548 55.8858 28.0886V14.1026C55.8858 12.9953 56.0023 10.1981 55.7692 9.14917C55.3613 7.40092 54.2541 6.87645 52.7389 6.87645C51.5151 6.87645 50.1748 7.69231 49.6503 9.03263C49.1259 10.373 49.1841 12.5874 49.1841 14.1026V28.0886C49.1841 28.613 48.7179 29.021 48.1935 29.021L43.0653 29.021C42.5408 28.9627 42.1329 28.5548 42.1329 28.0886V14.1026C42.1329 11.1888 42.5991 6.81817 38.986 6.81817C35.3147 6.81817 35.4312 11.014 35.4312 14.1026V28.0886C35.373 28.5548 34.965 28.9627 34.3823 28.9627V28.9627ZM129.371 0.233097C137.005 0.233097 141.142 6.7599 141.142 15.0932C141.142 23.1352 136.597 29.5454 129.371 29.5454C121.911 29.5454 117.832 23.0186 117.832 14.8601C117.774 6.64336 121.911 0.233097 129.371 0.233097ZM129.371 5.65267C125.583 5.65267 125.35 10.8392 125.35 14.0443C125.35 17.2494 125.291 24.1259 129.312 24.1259C133.275 24.1259 133.508 18.5897 133.508 15.2098C133.508 12.9953 133.392 10.3147 132.751 8.21679C132.168 6.35198 131.002 5.65267 129.371 5.65267ZM150.991 28.9627H145.862C145.338 28.9044 144.93 28.4965 144.93 28.0303V1.63169C144.988 1.16549 145.396 0.757569 145.921 0.757569L150.699 0.757569C151.165 0.757569 151.515 1.10723 151.632 1.51515V5.53613H151.748C153.205 1.92308 155.186 0.233097 158.741 0.233097C161.014 0.233097 163.287 1.04894 164.744 3.32167C166.084 5.41957 166.084 8.97435 166.084 11.5385V28.1468C166.026 28.613 165.618 28.9627 165.093 28.9627H159.965C159.499 28.9044 159.091 28.5548 159.033 28.1468V13.8112C159.033 10.8974 159.382 6.70163 155.827 6.70163C154.604 6.70163 153.438 7.51748 152.855 8.79954C152.156 10.4312 152.04 12.0046 152.04 13.8112V28.0303C151.981 28.5548 151.515 28.9627 150.991 28.9627V28.9627ZM82.5175 16.3753C82.5175 18.3566 82.5758 20.0466 81.5851 21.8531C80.7692 23.31 79.4872 24.1841 78.0303 24.1841C76.0489 24.1841 74.8834 22.669 74.8834 20.4545C74.8834 16.0839 78.7879 15.2681 82.5175 15.2681V16.3753ZM87.704 28.9044C87.3543 29.1958 86.8881 29.2541 86.4802 29.021C84.7902 27.6224 84.4405 26.9231 83.5081 25.5827C80.7109 28.4382 78.6713 29.3123 75.0583 29.3123C70.7459 29.3123 67.366 26.6317 67.366 21.3287C67.366 17.1329 69.6387 14.3357 72.8438 12.9371C75.641 11.7133 79.5455 11.4802 82.5175 11.1305V10.4895C82.5175 9.26573 82.634 7.80886 81.8765 6.75991C81.2354 5.82751 80.0699 5.41957 79.021 5.41957C77.0396 5.41957 75.2914 6.41026 74.8834 8.50816C74.7669 8.97436 74.4755 9.44055 74.0093 9.44055L69.0559 8.91608C68.648 8.79953 68.1818 8.50816 68.2984 7.86713C69.4639 1.80653 74.8834 0 79.7785 0C82.2844 0 85.5478 0.641022 87.5291 2.5641C90.035 4.8951 89.8019 8.04196 89.8019 11.4219V19.4056C89.8019 21.7949 90.7925 22.8438 91.7249 24.1841C92.0746 24.6503 92.1329 25.2331 91.7249 25.5245C90.6177 26.3986 88.7529 28.0303 87.704 28.9044V28.9044ZM15.2098 16.3753C15.2098 18.3566 15.2681 20.0466 14.2774 21.8531C13.4615 23.31 12.1795 24.1841 10.7226 24.1841C8.74125 24.1841 7.57576 22.669 7.57576 20.4545C7.57576 16.0839 11.4802 15.2681 15.2098 15.2681V16.3753ZM20.338 28.9044C19.9883 29.1958 19.5221 29.2541 19.1142 29.021C17.4242 27.6224 17.0746 26.9231 16.1422 25.5827C13.345 28.4382 11.3054 29.3123 7.69231 29.3123C3.37995 29.3123 0 26.6317 0 21.3287C0 17.1329 2.27272 14.3357 5.47785 12.9371C8.27505 11.7133 12.1795 11.4802 15.1515 11.1305V10.4895C15.1515 9.26573 15.2681 7.80886 14.5105 6.75991C13.8695 5.82751 12.704 5.41957 11.655 5.41957C9.67366 5.41957 7.9254 6.41026 7.51748 8.50816C7.40093 8.97436 7.10955 9.44055 6.64335 9.44055L1.68997 8.91608C1.28205 8.79953 0.815854 8.50816 0.932404 7.86713C2.09791 1.80653 7.51748 0 12.4126 0C14.9184 0 18.1818 0.641022 20.1632 2.5641C22.669 4.8951 22.4359 8.04196 22.4359 11.4219L22.4359 19.4056C22.4359 21.7949 23.4266 22.8438 24.359 24.1841C24.7086 24.6503 24.7669 25.2331 24.359 25.5245C23.2517 26.3986 21.3869 28.0303 20.338 28.9044V28.9044Z" fill="white"/>
</svg>
