<svg width="23" height="10" viewBox="0 0 23 10" fill="none" xmlns="http://www.w3.org/2000/svg">
<path d="M0.873696 0.0705192H1.69131L2.02862 1.29035L2.14431 1.76632H2.16552L2.27982 1.29035L2.61875 0.0705192H3.43636V3.51269H2.77709V2.4471L2.77745 2.39149C2.78316 1.98423 2.84675 1.2032 2.8815 0.848104H2.86562L2.60148 1.77203L2.33338 2.6012H1.95531L1.6826 1.77203L1.43616 0.848104H1.41787L1.42628 0.930421C1.46594 1.33249 1.52228 2.08593 1.52228 2.4471V3.51276H0.873696V0.0705192ZM4.13177 2.85949H4.93606V0.723714H4.13177V0.0704458H6.51962V0.723714H5.7157V2.85957H6.5197V3.51276H4.13184L4.13177 2.85949ZM7.17758 3.07901L7.62494 2.54398C7.88528 2.75706 8.20657 2.90325 8.54045 2.90325C8.87118 2.90325 9.02396 2.7752 9.02396 2.60691C9.02396 2.35908 8.81923 2.29915 8.4934 2.16276L8.04472 1.97127C7.66313 1.8264 7.3147 1.53386 7.3147 1.03286C7.3147 0.462787 7.8285 0.00708008 8.57689 0.00708008C8.99111 0.00708008 9.40972 0.162348 9.72062 0.457812L9.32799 0.94886C9.08535 0.774714 8.87067 0.679958 8.53423 0.679958C8.27755 0.679958 8.10326 0.786348 8.10326 0.987348C8.10326 1.19442 8.33411 1.2703 8.66448 1.39403L9.08579 1.57249C9.53689 1.74152 9.82153 2.02264 9.82153 2.50835C9.82153 3.08062 9.34123 3.57606 8.48872 3.57606C8.02335 3.57606 7.54277 3.40586 7.17758 3.07901ZM11.2778 0.723787H10.2453V0.0705192H13.0897V0.723787H12.0574V3.51284H11.2778V0.723787ZM14.4008 0.688812H14.7809C15.1903 0.688812 15.4099 0.803104 15.4099 1.14298C15.4099 1.48001 15.1903 1.6562 14.7809 1.6562H14.4008V0.688812ZM16.3394 3.51284L15.5605 2.13576C15.9282 1.96952 16.1742 1.64881 16.1742 1.14298C16.1742 0.332251 15.5858 0.0756409 14.8662 0.0705922H13.6198V3.51269H14.4008V2.27442H14.81L15.4675 3.51276L16.3394 3.51284ZM17.6332 2.08718L17.7147 1.77006L17.9819 0.659909H18.003C18.0622 0.919373 18.1326 1.19918 18.1999 1.46318L18.3589 2.08718H17.6332ZM18.7227 3.51284H19.5491L18.4764 0.0705192H17.5421L16.4695 3.51284H17.267L17.4772 2.6942H18.5138L18.7227 3.51284ZM20.1579 0.0705922H20.9359V2.85964H22.4689V3.51284H20.1579V0.0705922ZM1.77896 7.6093L1.8604 7.29218L2.12762 6.18196H2.14884C2.20796 6.44142 2.27835 6.72123 2.3456 6.9853L2.50467 7.6093H1.77896ZM2.86811 9.03627H3.69487L2.62174 5.59257H1.68714L0.614014 9.03627H1.41187L1.62231 8.2172H2.65914L2.86811 9.03627ZM4.13177 8.38169H4.93606V6.24584H4.13177V5.59257H6.51962V6.24584H5.7157V8.38169H6.5197V9.03496H4.13184L4.13177 8.38169ZM7.21277 9.37754H9.76394V9.97088H7.21277V9.37754Z" fill="white"/>
</svg>
