<svg width="124" height="92" viewBox="0 0 124 92" fill="none" xmlns="http://www.w3.org/2000/svg">
<g clip-path="url(#clip0_102_1262)">
<path d="M123.135 88.4141C123.135 89.7446 122.158 90.6376 121.001 90.6376V90.6295C119.812 90.6376 118.853 89.7446 118.853 88.4145C118.853 87.0847 119.812 86.1942 121.001 86.1942C122.158 86.1939 123.135 87.0844 123.135 88.4141ZM124 88.4141C124 86.5883 122.582 85.5285 121.001 85.5285C119.41 85.5285 117.991 86.5883 117.991 88.4141C117.991 90.2389 119.41 91.303 121.001 91.303C122.582 91.303 124 90.2389 124 88.4141ZM120.504 88.6583H120.825L121.569 89.9648H122.386L121.562 88.6032C121.988 88.5729 122.338 88.37 122.338 87.7967C122.338 87.0844 121.847 86.8554 121.015 86.8554H119.811V89.9648H120.503V88.6583M120.504 88.1319V87.3832H120.985C121.247 87.3832 121.603 87.4044 121.603 87.7237C121.603 88.0712 121.419 88.1319 121.11 88.1319H120.504Z" fill="white"/>
<path d="M103.804 72.5086L107.543 82.7377H99.9494L103.804 72.5086ZM99.7998 68.5257L91.183 90.3578H97.2676L98.6306 86.5001H108.828L110.118 90.3578H116.723L108.042 68.5228L99.7998 68.5257ZM82.5003 90.3659H88.6734V68.519L82.4992 68.5176L82.5003 90.3659ZM39.645 68.5176L34.4946 85.833L29.5609 68.519L22.9001 68.5176L29.9465 90.3659H38.8399L45.9431 68.5176H39.645ZM64.5978 73.2749H67.2509C71.1001 73.2749 73.5896 75.003 73.5896 79.4876C73.5896 83.9733 71.1001 85.7017 67.2509 85.7017H64.5978V73.2749ZM58.4764 68.5176V90.3659H68.4844C73.8164 90.3659 75.5576 89.4797 77.4402 87.4912C78.77 86.0951 79.6301 83.0313 79.6301 79.682C79.6301 76.6101 78.9023 73.8719 77.6332 72.1656C75.3466 69.1142 72.0527 68.5176 67.137 68.5176H58.4764ZM0 68.4872V90.3659H6.2254V73.7533L11.0491 73.7547C12.6463 73.7547 13.7848 74.1527 14.5539 74.9744C15.5295 76.0134 15.9278 77.6907 15.9278 80.7588V90.3659H21.9602V78.2778C21.9602 69.6504 16.4612 68.4872 11.0808 68.4872H0ZM48.5412 68.5176L48.5437 90.3659H54.714V68.5176H48.5412Z" fill="white"/>
<path d="M16.5905 25.0152C16.5905 25.0152 24.5302 13.3007 40.3832 12.0888V7.83882C22.824 9.24902 7.61841 24.1208 7.61841 24.1208C7.61841 24.1208 16.2306 49.0172 40.3832 51.2967V46.7793C22.6589 44.5495 16.5905 25.0152 16.5905 25.0152ZM40.3832 37.7952V41.9323C26.9875 39.5441 23.2692 25.6192 23.2692 25.6192C23.2692 25.6192 29.701 18.4942 40.3832 17.3387V21.8783C40.3751 21.8783 40.3694 21.8759 40.3627 21.8759C34.7562 21.2031 30.3763 26.4406 30.3763 26.4406C30.3763 26.4406 32.8312 35.2578 40.3832 37.7952ZM40.3832 0V7.83882C40.8986 7.79931 41.4141 7.76579 41.9324 7.74815C61.8953 7.07533 74.9025 24.1208 74.9025 24.1208C74.9025 24.1208 59.9633 42.2865 44.3993 42.2865C42.9728 42.2865 41.6374 42.1542 40.3832 41.9319V46.7793C41.4557 46.9154 42.5678 46.9955 43.7282 46.9955C58.2116 46.9955 68.6856 39.5988 78.8276 30.8444C80.5091 32.1911 87.3932 35.4673 88.8083 36.9015C79.1652 44.975 56.6913 51.483 43.9501 51.483C42.722 51.483 41.5425 51.4085 40.3832 51.2967V58.1081H95.4335V0H40.3832ZM40.3832 17.3387V12.0888C40.8934 12.0532 41.4074 12.026 41.9324 12.0094C56.2877 11.5585 65.7057 24.3456 65.7057 24.3456C65.7057 24.3456 55.5334 38.4733 44.6265 38.4733C43.0568 38.4733 41.6498 38.221 40.3832 37.7952V21.8783C45.9718 22.5536 47.0962 25.0223 50.456 30.6232L57.9286 24.3223C57.9286 24.3223 52.4738 17.1683 43.2784 17.1683C42.2789 17.1679 41.3224 17.2381 40.3832 17.3387Z" fill="white"/>
</g>
<defs>
<clipPath id="clip0_102_1262">
<rect width="124" height="91.303" fill="white"/>
</clipPath>
</defs>
</svg>
