<svg width="117" height="33" viewBox="0 0 117 33" fill="none" xmlns="http://www.w3.org/2000/svg">
<path d="M36.5352 15.3903C36.5352 10.1603 39.8951 6.51031 44.5551 6.51031C49.2151 6.51031 52.5751 10.1603 52.5751 15.3903C52.5751 20.6203 49.2151 24.2703 44.5551 24.2703C39.8951 24.2703 36.5352 20.6203 36.5352 15.3903ZM49.4951 15.3903C49.4951 11.6503 47.4551 9.22031 44.5551 9.22031C41.6551 9.22031 39.6152 11.6403 39.6152 15.3903C39.6152 19.1403 41.6551 21.5603 44.5551 21.5603C47.4551 21.5603 49.4951 19.1403 49.4951 15.3903ZM61.2151 24.2703C59.5851 24.2703 58.3852 23.6203 57.5952 22.6903V28.3303H54.7151V11.4103H57.5952V12.7503C58.3852 11.8103 59.5851 11.1703 61.2151 11.1703C64.7451 11.1703 66.7552 14.1503 66.7552 17.7203C66.7552 21.2903 64.7351 24.2703 61.2151 24.2703ZM57.5152 17.3603V18.1003C57.5152 20.4303 58.8551 21.7503 60.6351 21.7503C62.7251 21.7503 63.8551 20.1203 63.8551 17.7203C63.8551 15.3203 62.7251 13.6903 60.6351 13.6903C58.8551 13.6903 57.5152 14.9903 57.5152 17.3603ZM74.5452 24.2703C70.9452 24.2703 68.4252 21.6103 68.4252 17.7203C68.4252 13.8303 70.9252 11.1703 74.4252 11.1703C77.9252 11.1703 80.0152 13.9303 80.0152 17.3903V18.3503H71.1852C71.4052 20.5103 72.6952 21.8303 74.5452 21.8303C75.9652 21.8303 77.0851 21.1103 77.4751 19.8103L79.9451 20.7503C79.0551 22.9603 77.0652 24.2803 74.5452 24.2803V24.2703ZM74.4052 13.5903C72.9152 13.5903 71.7651 14.4803 71.3351 16.1803H77.1152C77.0952 14.7903 76.2252 13.5903 74.4052 13.5903ZM82.1852 24.0103V11.4103H85.0652V12.7503C85.7852 11.9103 86.9152 11.1703 88.5452 11.1703C91.1852 11.1703 92.7652 12.9903 92.7652 15.7103V24.0103H89.8851V16.5503C89.8851 14.9903 89.2652 13.8603 87.6752 13.8603C86.3752 13.8603 85.0551 14.8203 85.0551 16.6203V24.0103H82.1752H82.1852ZM101.205 6.78032H104.685L111.215 24.0103H108.115L106.625 20.0703H99.1852L97.7251 24.0103H94.6752L101.205 6.78032ZM102.885 10.1903L100.195 17.3903H105.615L102.875 10.1903H102.885ZM116.155 6.78032V24.0103H113.085V6.78032H116.155Z" fill="white"/>
<path d="M29.4952 13.1003C29.8552 12.0203 29.9752 10.8803 29.8652 9.7503C29.7552 8.6203 29.3852 7.5303 28.8152 6.5503C27.9652 5.0703 26.6652 3.9003 25.1052 3.2003C23.5452 2.5003 21.8052 2.3203 20.1352 2.6803C19.3852 1.8303 18.4552 1.1503 17.4152 0.690301C16.3752 0.230301 15.2552 -0.00969976 14.1152 0.00030024C12.4052 0.00030024 10.7452 0.5303 9.35518 1.5403C7.97518 2.5403 6.94518 3.9603 6.41518 5.5803C5.30518 5.8103 4.25518 6.2703 3.33518 6.9403C2.41518 7.6103 1.64518 8.4603 1.08518 9.4503C0.225181 10.9303 -0.134813 12.6403 0.0451874 14.3403C0.225187 16.0403 0.935181 17.6403 2.08518 18.9103C1.72518 19.9903 1.60519 21.1303 1.71519 22.2603C1.83519 23.3903 2.19519 24.4803 2.76519 25.4603C3.61519 26.9403 4.91518 28.1103 6.47518 28.8103C8.03518 29.5103 9.77518 29.6903 11.4452 29.3303C12.1952 30.1803 13.1252 30.8603 14.1652 31.3203C15.2052 31.7803 16.3252 32.0203 17.4652 32.0103C19.1752 32.0103 20.8452 31.4803 22.2252 30.4703C23.6052 29.4703 24.6352 28.0503 25.1652 26.4203C26.2752 26.1903 27.3252 25.7303 28.2452 25.0603C29.1652 24.3903 29.9252 23.5403 30.4952 22.5503C31.3552 21.0703 31.7152 19.3603 31.5352 17.6603C31.3552 15.9603 30.6452 14.3603 29.4952 13.1003ZM17.5352 29.9103C15.9452 29.9103 14.7052 29.4203 13.6352 28.5203C13.6852 28.4903 13.7652 28.4503 13.8252 28.4103L20.1952 24.7303C20.3552 24.6403 20.4852 24.5103 20.5752 24.3503C20.6652 24.1903 20.7152 24.0103 20.7152 23.8303V14.8503L23.4052 16.4103C23.4052 16.4103 23.4352 16.4303 23.4452 16.4403C23.4452 16.4503 23.4552 16.4703 23.4652 16.4803V23.9203C23.4652 27.2903 20.6552 29.9203 17.5352 29.9203V29.9103ZM4.58518 24.4103C3.88518 23.2003 3.62519 21.7703 3.87519 20.3903C3.92519 20.4203 4.00519 20.4703 4.06519 20.5003L10.4352 24.1803C10.5952 24.2703 10.7752 24.3203 10.9552 24.3203C11.1352 24.3203 11.3152 24.2703 11.4752 24.1803L19.2552 19.6903V22.8003C19.2552 22.8003 19.2552 22.8303 19.2552 22.8503C19.2552 22.8603 19.2352 22.8803 19.2252 22.8903L12.7852 26.6103C11.4052 27.4003 9.77519 27.6203 8.23519 27.2103C6.69519 26.8003 5.38519 25.7903 4.59519 24.4203L4.58518 24.4103ZM2.90519 10.5003C3.60519 9.2803 4.71518 8.3503 6.02518 7.8703V15.4503C6.02518 15.6303 6.07518 15.8103 6.16518 15.9703C6.25518 16.1303 6.38519 16.2603 6.54519 16.3503L14.3252 20.8403L11.6352 22.4003C11.6352 22.4003 11.6052 22.4103 11.5952 22.4203C11.5752 22.4203 11.5652 22.4203 11.5452 22.4203L5.10519 18.7003C3.72519 17.9003 2.72519 16.5903 2.31519 15.0603C1.90519 13.5203 2.11519 11.8903 2.90519 10.5103V10.5003ZM25.0352 15.6503L17.2552 11.1603L19.9452 9.6103C19.9452 9.6103 19.9752 9.6003 19.9852 9.5903H20.0352L26.4752 13.3103C27.4652 13.8803 28.2652 14.7203 28.7952 15.7303C29.3252 16.7403 29.5452 17.8803 29.4552 19.0103C29.3552 20.1503 28.9352 21.2303 28.2452 22.1303C27.5552 23.0403 26.6252 23.7303 25.5552 24.1203V16.5403C25.5552 16.3603 25.5052 16.1803 25.4152 16.0203C25.3252 15.8603 25.1952 15.7303 25.0352 15.6403V15.6503ZM27.7152 11.6103C27.7152 11.6103 27.5852 11.5303 27.5252 11.5003L21.1552 7.8203C20.9952 7.7303 20.8152 7.6803 20.6352 7.6803C20.4552 7.6803 20.2652 7.7303 20.1152 7.8203L12.3352 12.3103V9.2003C12.3352 9.2003 12.3352 9.1703 12.3352 9.1503C12.3352 9.1403 12.3552 9.1203 12.3652 9.1103L18.8052 5.3903C19.7952 4.8203 20.9152 4.5403 22.0552 4.5903C23.1952 4.6403 24.2952 5.0103 25.2252 5.6603C26.1552 6.3103 26.8852 7.2203 27.3252 8.2703C27.7652 9.3203 27.8952 10.4803 27.7052 11.6003L27.7152 11.6103ZM10.8652 17.1603L8.17519 15.6003C8.17519 15.6003 8.14518 15.5803 8.13518 15.5703C8.13518 15.5603 8.12519 15.5403 8.11519 15.5303V8.0903C8.11519 6.9503 8.44518 5.8403 9.05518 4.8703C9.66518 3.9103 10.5352 3.1403 11.5752 2.6603C12.6052 2.1803 13.7552 2.0003 14.8852 2.1403C16.0152 2.2903 17.0852 2.7503 17.9552 3.4803C17.9052 3.5103 17.8252 3.5503 17.7652 3.5903L11.3952 7.2703C11.2352 7.3603 11.1052 7.4903 11.0152 7.6503C10.9252 7.8103 10.8752 7.9903 10.8752 8.1703V17.1503L10.8652 17.1603ZM12.3252 14.0103L15.7852 12.0103L19.2452 14.0103V18.0103L15.7852 20.0103L12.3252 18.0103V14.0103Z" fill="white"/>
</svg>
