<svg width="489" height="157" viewBox="0 0 489 157" fill="none" xmlns="http://www.w3.org/2000/svg">
<g clip-path="url(#clip0_102_1611)">
<path d="M352.083 156.702C351.087 156.702 350.101 156.506 349.181 156.125C348.261 155.744 347.426 155.186 346.721 154.482C346.017 153.778 345.459 152.942 345.078 152.022C344.697 151.102 344.501 150.116 344.501 149.12V7.582C344.501 6.58628 344.697 5.60029 345.078 4.68034C345.459 3.76039 346.017 2.9245 346.721 2.22042C347.426 1.51634 348.261 0.957863 349.181 0.576878C350.101 0.195893 351.087 -0.000131089 352.083 2.63859e-07C353.079 -0.000262455 354.065 0.195665 354.985 0.576591C355.905 0.957517 356.741 1.51598 357.445 2.22007C358.149 2.92416 358.708 3.76009 359.089 4.68011C359.47 5.60012 359.666 6.5862 359.666 7.582V149.12C359.666 150.116 359.47 151.102 359.089 152.022C358.708 152.942 358.149 153.778 357.445 154.482C356.741 155.186 355.905 155.744 354.985 156.125C354.065 156.506 353.079 156.702 352.083 156.702ZM481.757 136.841C482.402 136.082 482.891 135.204 483.196 134.256C483.501 133.308 483.616 132.309 483.535 131.317C483.454 130.325 483.179 129.358 482.724 128.472C482.27 127.586 481.645 126.798 480.886 126.154C480.127 125.509 479.249 125.021 478.301 124.715C477.353 124.41 476.355 124.295 475.362 124.376C474.37 124.457 473.403 124.732 472.517 125.187C471.631 125.641 470.843 126.266 470.199 127.025C462.364 136.248 450.636 141.538 438.017 141.538C417.113 141.538 400.106 124.531 400.106 103.627C400.106 82.723 417.113 65.717 438.017 65.717C455.003 65.717 469.194 77.921 472.274 94.023H425.883C424.887 94.0229 423.901 94.2189 422.981 94.6C422.061 94.981 421.225 95.5396 420.521 96.2438C419.817 96.948 419.259 97.784 418.878 98.704C418.497 99.6241 418.301 100.61 418.301 101.606C418.301 102.602 418.497 103.588 418.878 104.508C419.259 105.428 419.817 106.263 420.521 106.968C421.226 107.672 422.061 108.23 422.981 108.611C423.901 108.992 424.887 109.188 425.883 109.188H480.476C481.472 109.188 482.458 108.992 483.378 108.611C484.298 108.23 485.134 107.672 485.838 106.968C486.542 106.264 487.1 105.428 487.481 104.508C487.862 103.588 488.058 102.602 488.058 101.606V100.594C488.058 72.999 465.61 50.55 438.014 50.55C408.747 50.55 384.937 74.36 384.937 103.627C384.937 132.894 408.751 156.702 438.017 156.702C455.093 156.702 471.036 149.462 481.757 136.841ZM319.227 149.12V100.591C319.227 72.996 296.779 50.548 269.184 50.548C239.916 50.548 216.106 74.358 216.106 103.625C216.106 132.892 239.916 156.702 269.184 156.702C270.18 156.702 271.166 156.506 272.086 156.125C273.006 155.744 273.842 155.186 274.546 154.482C275.25 153.778 275.808 152.942 276.189 152.022C276.57 151.102 276.766 150.116 276.766 149.12C276.766 148.124 276.57 147.138 276.189 146.218C275.808 145.298 275.25 144.462 274.546 143.758C273.842 143.054 273.006 142.496 272.086 142.115C271.166 141.734 270.18 141.538 269.184 141.538C248.28 141.538 231.273 124.531 231.273 103.627C231.273 82.723 248.28 65.717 269.184 65.717C288.415 65.717 304.063 81.362 304.063 100.596V149.122C304.063 150.118 304.259 151.104 304.64 152.024C305.021 152.944 305.579 153.78 306.283 154.484C306.987 155.188 307.823 155.746 308.743 156.127C309.663 156.508 310.649 156.704 311.645 156.704C313.656 156.703 315.584 155.904 317.006 154.482C318.428 153.06 319.227 151.131 319.227 149.12ZM89.711 126.373C89.711 118.973 86.993 108.879 74.043 102.814C66.273 99.174 56.523 97.679 47.094 96.233C25.004 92.846 17.16 90.016 17.16 80.878C17.16 70.923 30.965 65.714 44.603 65.714C53.197 65.714 65.547 67.447 75.589 75.705C76.3582 76.3376 77.2445 76.8126 78.1973 77.1027C79.1501 77.3928 80.1507 77.4924 81.1419 77.3959C82.1332 77.2993 83.0957 77.0084 83.9746 76.5399C84.8534 76.0713 85.6314 75.4342 86.264 74.665C86.8967 73.8958 87.3716 73.0095 87.6617 72.0567C87.9519 71.104 88.0515 70.1034 87.9549 69.1121C87.8583 68.1208 87.5674 67.1583 87.0989 66.2794C86.6303 65.4006 85.9932 64.6226 85.224 63.99C71.714 52.878 55.677 50.545 44.605 50.545C15.331 50.545 1.99803 66.267 1.99803 80.874C1.99803 88.324 4.72703 98.485 17.726 104.594C25.539 108.265 35.331 109.765 44.8 111.218C66.754 114.585 74.549 117.379 74.549 126.369C74.549 135.44 63.72 141.533 47.607 141.533C31.111 141.533 18.539 134.844 12.515 130.855C10.8379 129.745 8.78887 129.347 6.81836 129.748C4.84784 130.149 3.11722 131.316 2.00703 132.993C1.45738 133.823 1.07667 134.754 0.88665 135.731C0.696626 136.709 0.701007 137.714 0.899542 138.69C1.09808 139.666 1.48688 140.593 2.04374 141.418C2.60061 142.244 3.31463 142.951 4.14503 143.501C16.999 152.014 32.434 156.702 47.602 156.702C76.691 156.702 89.711 141.468 89.711 126.373ZM199.65 134.323C200.763 132.648 201.165 130.6 200.768 128.628C200.371 126.657 199.207 124.924 197.533 123.81C195.858 122.697 193.809 122.295 191.838 122.692C189.866 123.089 188.133 124.253 187.02 125.928C180.526 135.702 169.658 141.535 157.952 141.535C137.048 141.535 120.041 124.529 120.041 103.625C120.041 82.721 137.048 65.715 157.952 65.715C169.66 65.715 180.526 71.548 187.02 81.322C187.571 82.1514 188.28 82.8641 189.107 83.4194C189.934 83.9747 190.862 84.3616 191.838 84.5582C192.814 84.7548 193.82 84.7572 194.797 84.5651C195.774 84.3731 196.704 83.9904 197.533 83.439C198.362 82.8879 199.075 82.1788 199.63 81.3522C200.186 80.5256 200.573 79.5977 200.769 78.6216C200.966 77.6454 200.968 76.64 200.776 75.6629C200.584 74.6859 200.201 73.7562 199.65 72.927C190.338 58.913 174.748 50.547 157.952 50.547C128.685 50.547 104.875 74.357 104.875 103.625C104.875 132.892 128.685 156.702 157.952 156.702C174.75 156.702 190.338 148.336 199.65 134.323Z" fill="white"/>
</g>
<defs>
<clipPath id="clip0_102_1611">
<rect width="489" height="157" fill="white"/>
</clipPath>
</defs>
</svg>
