<svg xmlns="http://www.w3.org/2000/svg" xmlns:xlink="http://www.w3.org/1999/xlink" fill="none" version="1.1" width="500" height="500" viewBox="0 0 500 500"><defs><clipPath id="master_svg0_1_92"><rect x="0" y="0" width="500" height="500" rx="0"/></clipPath></defs><g clip-path="url(#master_svg0_1_92)"><g><path d="M362.14726074218754,204.22619104003905C362.39726074218754,206.45219104003905,362.7192607421875,208.27419104003906,362.7222607421875,210.09619104003906C362.75826074218753,236.58919104003905,362.8112607421875,263.0831910400391,362.7262607421875,289.576191040039C362.6912607421875,300.446191040039,358.8942607421875,304.47119104003906,348.0292607421875,304.5781910400391C336.3662607421875,304.6941910400391,324.6982607421875,304.88019104003905,313.03226074218753,304.94119104003903C301.3672607421875,305.00319104003904,289.7042607421875,304.9391910400391,278.05426074218747,304.5541910400391C259.98426074218753,303.9581910400391,251.5122607421875,316.19119104003903,251.9452607421875,330.51219104003906C252.6442607421875,353.65219104003904,252.1632607421875,376.82919104003906,252.1162607421875,399.99019104003906C252.0942607421875,410.52919104003905,248.0622607421875,415.20519104003904,237.49826074218748,415.3451910400391C210.6768607421875,415.7011910400391,183.8475607421875,415.77019104003904,157.0247607421875,415.55019104003907C146.9832807421875,415.4681910400391,142.4341127421875,410.45419104003906,142.4030304421875,400.49119104003904C142.3214263921875,374.33219104003905,142.3421783421875,348.17119104003905,142.4989777421875,322.01219104003906C142.5640867421875,311.1501910400391,147.7720307421875,306.18719104003907,158.5936607421875,306.16819104003906C182.5879607421875,306.12519104003906,206.59406074218748,305.6771910400391,230.57216074218752,306.2941910400391C245.1062607421875,306.6691910400391,253.96226074218748,294.4441910400391,253.78526074218752,283.1211910400391C253.4482607421875,261.6311910400391,253.6992607421875,240.13319104003907,253.6892607421875,218.63819104003906C253.6812607421875,202.66419104003904,245.30826074218749,194.16519104003908,229.46166074218752,194.11119104003905C205.8008607421875,194.03019104003906,182.1397607421875,194.04619104003905,158.4792607421875,193.93019104003906C146.9333807421875,193.87419104003908,142.4213257421875,189.44119104003906,142.3750152421875,177.90909104003907C142.2760009421875,153.24899104003907,142.3252563521875,128.58829104003905,142.3684082421875,103.92789104003906C142.3733367421875,101.10639104003906,142.4243007421875,98.22479104003907,142.9768367421875,95.47609104003907C144.3797107421875,88.49747104003906,148.4425007421875,85.14176204003907,155.5607607421875,85.11078604003906C183.5536607421875,84.98895264003906,211.54696074218748,84.91342164003906,239.54016074218748,84.93338013003907C248.23626074218748,84.93958282003906,251.8722607421875,88.72135104003907,251.9032607421875,97.58109104003907C251.98726074218752,122.07459104003905,252.46326074218752,146.58119104003907,251.8242607421875,171.05749104003905C251.4372607421875,185.86319104003906,262.0572607421875,196.19319104003907,276.5872607421875,196.02419104003906C300.9112607421875,195.74019104003906,325.2412607421875,196.02919104003905,349.5682607421875,195.90219104003904C355.63326074218753,195.87119104003907,359.7902607421875,198.20119104003908,362.14726074218754,204.22619104003905Z" fill="#000000" fill-opacity="1"/></g></g></svg>