<svg version="1.1" id="Layer_1" xmlns="http://www.w3.org/2000/svg" xmlns:xlink="http://www.w3.org/1999/xlink" x="0px" y="0px"
	 width="100%" viewBox="0 0 500 500" enable-background="new 0 0 500 500" xml:space="preserve">
<path fill="#000000" opacity="1.000000" stroke="none" 
	d="
M221.000000,501.000000 
	C147.333344,501.000000 74.166702,501.000000 1.000039,501.000000 
	C1.000026,334.333405 1.000026,167.666779 1.000013,1.000129 
	C167.666565,1.000086 334.333130,1.000086 500.999756,1.000043 
	C500.999847,167.666534 500.999847,334.333069 500.999939,500.999817 
	C407.833344,501.000000 314.666656,501.000000 221.000000,501.000000 
M362.069977,203.822769 
	C359.790405,198.200729 355.633545,195.870972 349.568085,195.902496 
	C325.241272,196.028976 300.910919,195.739899 276.586792,196.023788 
	C262.057404,196.193359 251.437408,185.863586 251.824097,171.057526 
	C252.463333,146.581192 251.986969,122.074623 251.902908,97.581070 
	C251.872498,88.721352 248.236008,84.939583 239.540115,84.933380 
	C211.546997,84.913422 183.553635,84.988953 155.560730,85.110786 
	C148.442505,85.141762 144.379715,88.497475 142.976837,95.476135 
	C142.424301,98.224762 142.373337,101.106361 142.368408,103.927895 
	C142.325256,128.588257 142.276001,153.249008 142.375015,177.909058 
	C142.421326,189.440872 146.933380,193.873840 158.479218,193.930313 
	C182.139755,194.046036 205.800903,194.030380 229.461639,194.111176 
	C245.308548,194.165283 253.681488,202.664093 253.689041,218.638504 
	C253.699219,240.133133 253.448517,261.631531 253.784821,283.120880 
	C253.962036,294.443909 245.106705,306.668701 230.572205,306.294464 
	C206.594086,305.677032 182.587952,306.125000 158.593704,306.167969 
	C147.772034,306.187347 142.564087,311.150421 142.498978,322.012634 
	C142.342178,348.171631 142.321426,374.332123 142.403030,400.491516 
	C142.434113,410.454498 146.983276,415.468567 157.024750,415.550690 
	C183.847565,415.770050 210.676849,415.700745 237.498230,415.345032 
	C248.062744,415.204956 252.094589,410.529114 252.115906,399.990173 
	C252.162781,376.829071 252.644684,353.652344 251.944870,330.512360 
	C251.511765,316.191010 259.984406,303.958221 278.054291,304.554565 
	C301.354980,305.323486 324.703766,304.809967 348.029144,304.578491 
	C358.894684,304.470703 362.690948,300.446533 362.725983,289.576508 
	C362.811340,263.083191 362.757996,236.589386 362.721832,210.095840 
	C362.719360,208.273880 362.397614,206.452332 362.069977,203.822769 
z"/>
<path fill="#FDFDFD" opacity="1.000000" stroke="none" 
	d="
M362.147156,204.226685 
	C362.397614,206.452332 362.719360,208.273880 362.721832,210.095840 
	C362.757996,236.589386 362.811340,263.083191 362.725983,289.576508 
	C362.690948,300.446533 358.894684,304.470703 348.029144,304.578491 
	C324.703766,304.809967 301.354980,305.323486 278.054291,304.554565 
	C259.984406,303.958221 251.511765,316.191010 251.944870,330.512360 
	C252.644684,353.652344 252.162781,376.829071 252.115906,399.990173 
	C252.094589,410.529114 248.062744,415.204956 237.498230,415.345032 
	C210.676849,415.700745 183.847565,415.770050 157.024750,415.550690 
	C146.983276,415.468567 142.434113,410.454498 142.403030,400.491516 
	C142.321426,374.332123 142.342178,348.171631 142.498978,322.012634 
	C142.564087,311.150421 147.772034,306.187347 158.593704,306.167969 
	C182.587952,306.125000 206.594086,305.677032 230.572205,306.294464 
	C245.106705,306.668701 253.962036,294.443909 253.784821,283.120880 
	C253.448517,261.631531 253.699219,240.133133 253.689041,218.638504 
	C253.681488,202.664093 245.308548,194.165283 229.461639,194.111176 
	C205.800903,194.030380 182.139755,194.046036 158.479218,193.930313 
	C146.933380,193.873840 142.421326,189.440872 142.375015,177.909058 
	C142.276001,153.249008 142.325256,128.588257 142.368408,103.927895 
	C142.373337,101.106361 142.424301,98.224762 142.976837,95.476135 
	C144.379715,88.497475 148.442505,85.141762 155.560730,85.110786 
	C183.553635,84.988953 211.546997,84.913422 239.540115,84.933380 
	C248.236008,84.939583 251.872498,88.721352 251.902908,97.581070 
	C251.986969,122.074623 252.463333,146.581192 251.824097,171.057526 
	C251.437408,185.863586 262.057404,196.193359 276.586792,196.023788 
	C300.910919,195.739899 325.241272,196.028976 349.568085,195.902496 
	C355.633545,195.870972 359.790405,198.200729 362.147156,204.226685 
z"/>
</svg>