<svg width="1436" height="490" viewBox="0 0 1436 490" fill="none" xmlns="http://www.w3.org/2000/svg">
<path d="M1090.47 802.585C1090.47 998.596 1048.67 1176.04 981.103 1304.46C913.526 1432.9 820.224 1512.24 717.247 1512.24C614.27 1512.24 520.968 1432.9 453.391 1304.46C385.823 1176.04 344.021 998.596 344.021 802.585C344.021 606.574 385.823 429.134 453.391 300.709C520.968 172.269 614.27 92.9303 717.247 92.9303C820.224 92.9303 913.526 172.269 981.103 300.709C1048.67 429.134 1090.47 606.574 1090.47 802.585Z" stroke="#3F83F8" stroke-width="0.618436"/>
<path d="M718.185 1175.12C522.174 1175.12 344.734 1133.32 216.309 1065.75C87.8691 998.173 8.53048 904.87 8.53048 801.894C8.53048 698.917 87.8691 605.614 216.309 538.038C344.734 470.469 522.174 428.668 718.185 428.668C914.197 428.668 1091.64 470.469 1220.06 538.038C1348.5 605.614 1427.84 698.917 1427.84 801.894C1427.84 904.87 1348.5 998.173 1220.06 1065.75C1091.64 1133.32 914.197 1175.12 718.185 1175.12Z" stroke="#3F83F8" stroke-width="0.618436"/>
<path d="M981.43 539.338C1120.03 677.939 1215.94 832.966 1258.97 971.555C1302.01 1110.16 1292.14 1232.23 1219.32 1305.05C1146.51 1377.87 1024.43 1387.74 885.826 1344.7C747.237 1301.67 592.21 1205.76 453.609 1067.16C315.008 928.558 219.098 773.531 176.065 634.942C133.028 496.338 142.902 374.263 215.718 301.447C288.534 228.631 410.609 218.757 549.214 261.794C687.803 304.827 842.829 400.737 981.43 539.338Z" stroke="#3F83F8" stroke-width="0.618436"/>
<path d="M981.602 1066.01C843.001 1204.61 687.974 1300.52 549.385 1343.55C410.781 1386.59 288.705 1376.71 215.89 1303.9C143.074 1231.08 133.2 1109.01 176.237 970.403C219.269 831.814 315.18 676.787 453.781 538.186C592.382 399.585 747.409 303.674 885.997 260.642C1024.6 217.605 1146.68 227.479 1219.49 300.295C1292.31 373.11 1302.18 495.186 1259.15 633.79C1216.11 772.379 1120.2 927.406 981.602 1066.01Z" stroke="#3F83F8" stroke-width="0.618436"/>
<path d="M860.689 458.8C1041.78 533.81 1189.72 640.333 1282.51 751.904C1375.31 863.489 1412.91 980.05 1373.5 1075.19C1334.09 1170.33 1225.09 1226.17 1080.56 1239.45C936.055 1252.73 756.126 1223.44 575.035 1148.43C393.944 1073.42 246.008 966.898 153.216 855.326C60.413 743.742 22.8189 627.181 62.2265 532.042C101.634 436.904 210.639 381.066 355.162 367.785C499.669 354.506 679.599 383.789 860.689 458.8Z" stroke="#3F83F8" stroke-width="0.618436"/>
<path d="M1062.39 945.316C987.38 1126.41 880.858 1274.34 769.286 1367.14C657.702 1459.94 541.14 1497.53 446.002 1458.12C350.864 1418.72 295.025 1309.71 281.744 1165.19C268.465 1020.68 297.749 840.752 372.759 659.662C447.77 478.571 554.292 330.635 665.864 237.842C777.448 145.04 894.01 107.446 989.148 146.853C1084.29 186.261 1140.12 295.266 1153.41 439.789C1166.68 584.296 1137.4 764.225 1062.39 945.316Z" stroke="#3F83F8" stroke-width="0.618436"/>
<path d="M575.384 458.538C756.474 383.528 936.404 354.244 1080.91 367.523C1225.43 380.804 1334.44 436.642 1373.85 531.78C1413.25 626.919 1375.66 743.48 1282.86 855.065C1190.07 966.636 1042.13 1073.16 861.038 1148.17C679.947 1223.18 500.018 1252.46 355.511 1239.18C210.987 1225.9 101.983 1170.06 62.5753 1074.93C23.1678 979.788 60.7619 863.227 153.564 751.643C246.357 640.071 394.293 533.548 575.384 458.538Z" stroke="#3F83F8" stroke-width="0.618436"/>
<path d="M1062.03 659.927C1137.04 841.018 1166.32 1020.95 1153.04 1165.46C1139.76 1309.98 1083.93 1418.98 988.787 1458.39C893.649 1497.8 777.087 1460.2 665.503 1367.4C553.931 1274.61 447.408 1126.67 372.398 945.582C297.388 764.491 268.104 584.562 281.383 440.055C294.664 295.531 350.502 186.527 445.641 147.119C540.779 107.712 657.341 145.306 768.925 238.108C880.496 330.901 987.019 478.837 1062.03 659.927Z" stroke="#3F83F8" stroke-width="0.618436"/>
<path d="M1090.12 786.342C1098.67 982.167 1064.65 1161.26 1002.75 1292.51C940.837 1423.78 851.084 1507.11 748.205 1511.6C645.326 1516.09 548.652 1440.9 475.537 1315.53C402.431 1190.17 352.93 1014.73 344.38 818.902C335.83 623.077 369.852 443.983 431.754 312.732C493.664 181.467 583.417 98.1343 686.296 93.6425C789.175 89.1507 885.849 164.344 958.963 289.714C1032.07 415.07 1081.57 590.517 1090.12 786.342Z" stroke="#3F83F8" stroke-width="0.618436"/>
<path d="M734.432 1174.76C538.608 1183.31 359.514 1149.29 228.263 1087.38C96.9977 1025.47 13.6648 935.722 9.17305 832.843C4.68126 729.964 79.8746 633.29 205.245 560.175C330.6 487.069 506.048 437.567 701.873 429.018C897.697 420.468 1076.79 454.49 1208.04 516.392C1339.31 578.302 1422.64 668.055 1427.13 770.934C1431.62 873.812 1356.43 970.487 1231.06 1043.6C1105.7 1116.71 930.257 1166.21 734.432 1174.76Z" stroke="#3F83F8" stroke-width="0.618436"/>
<path d="M969.694 528.098C1114.21 660.522 1216.79 811.217 1265.83 947.797C1314.87 1084.39 1310.33 1206.78 1240.76 1282.71C1171.19 1358.63 1049.66 1373.82 909.31 1336.87C768.976 1299.92 609.913 1210.86 465.398 1078.44C320.884 946.017 218.302 795.321 169.266 658.741C120.224 522.146 124.763 399.756 194.334 323.833C263.904 247.911 385.433 232.722 525.782 269.672C666.116 306.618 825.179 395.675 969.694 528.098Z" stroke="#3F83F8" stroke-width="0.618436"/>
<path d="M992.842 1054.26C860.419 1198.77 709.723 1301.36 573.143 1350.39C436.548 1399.43 314.158 1394.9 238.235 1325.32C162.313 1255.75 147.124 1134.23 184.074 993.876C221.02 853.542 310.077 694.479 442.5 549.965C574.924 405.45 725.619 302.869 862.199 253.832C998.794 204.79 1121.18 209.33 1197.11 278.9C1273.03 348.47 1288.22 469.999 1251.27 610.349C1214.32 750.683 1125.27 909.746 992.842 1054.26Z" stroke="#3F83F8" stroke-width="0.618436"/>
<path d="M845.552 452.907C1029.74 519.947 1182.18 619.915 1279.76 727.333C1377.34 834.763 1419.98 949.574 1384.76 1046.34C1349.54 1143.11 1243.07 1203.65 1099.27 1223.22C955.477 1242.79 774.441 1221.38 590.251 1154.34C406.06 1087.3 253.619 987.334 156.048 879.916C58.4666 772.486 15.824 657.675 51.0442 560.908C86.2643 464.141 192.73 403.601 336.536 384.029C480.326 364.46 661.362 385.867 845.552 452.907Z" stroke="#3F83F8" stroke-width="0.618436"/>
<path d="M1068.29 930.16C1001.25 1114.35 901.279 1266.79 793.861 1364.36C686.431 1461.94 571.62 1504.59 474.854 1469.37C378.087 1434.15 317.547 1327.68 297.975 1183.88C278.405 1040.08 299.813 859.049 366.852 674.859C433.892 490.668 533.861 338.227 641.279 240.656C748.709 143.075 863.52 100.432 960.286 135.652C1057.05 170.872 1117.59 277.337 1137.17 421.144C1156.73 564.934 1135.33 745.97 1068.29 930.16Z" stroke="#3F83F8" stroke-width="0.618436"/>
<path d="M560.51 465.088C738.157 382.25 916.638 345.146 1061.59 352.109C1206.55 359.073 1317.89 410.103 1361.41 503.432C1404.93 596.761 1372.45 714.851 1284.61 830.377C1196.77 945.891 1053.62 1058.76 875.974 1141.6C698.328 1224.44 519.847 1261.54 374.898 1254.58C229.933 1247.62 118.597 1196.59 75.0767 1103.26C31.5568 1009.93 64.0307 891.839 151.878 776.313C239.715 660.8 382.864 547.926 560.51 465.088Z" stroke="#3F83F8" stroke-width="0.618436"/>
<path d="M1055.48 645.059C1138.32 822.706 1175.42 1001.19 1168.46 1146.14C1161.49 1291.1 1110.46 1402.44 1017.13 1445.96C923.805 1489.48 805.715 1457 690.189 1369.16C574.676 1281.32 461.802 1138.17 378.964 960.523C296.126 782.877 259.022 604.396 265.985 459.447C272.949 314.482 323.979 203.145 417.308 159.626C510.637 116.106 628.727 148.58 744.253 236.427C859.766 324.264 972.641 467.413 1055.48 645.059Z" stroke="#3F83F8" stroke-width="0.618436"/>
<path d="M1089.05 770.127C1106.14 965.393 1079.96 1145.8 1023.84 1279.63C967.716 1413.47 881.684 1500.64 779.099 1509.61C676.513 1518.59 576.651 1447.68 498.138 1325.62C419.633 1203.57 362.526 1030.45 345.442 835.185C328.359 639.919 354.536 459.512 410.655 325.686C466.78 191.845 552.812 104.677 655.398 95.7015C757.983 86.7265 857.845 157.631 936.358 279.693C1014.86 401.741 1071.97 574.862 1089.05 770.127Z" stroke="#3F83F8" stroke-width="0.618436"/>
<path d="M750.647 1173.69C555.382 1190.77 374.974 1164.59 241.148 1108.48C107.308 1052.35 20.1391 966.318 11.164 863.733C2.18901 761.148 73.0939 661.286 195.155 582.773C317.203 504.268 490.324 447.161 685.59 430.077C880.855 412.994 1061.26 439.171 1195.09 495.29C1328.93 551.415 1416.1 637.447 1425.07 740.032C1434.05 842.617 1363.14 942.479 1241.08 1020.99C1119.03 1099.5 945.913 1156.6 750.647 1173.69Z" stroke="#3F83F8" stroke-width="0.618436"/>
<path d="M957.481 517.382C1107.63 643.376 1216.69 789.454 1271.64 923.765C1326.59 1058.09 1327.4 1180.56 1261.2 1259.45C1195.01 1338.33 1074.26 1358.81 932.433 1328.01C790.621 1297.23 627.825 1215.19 477.671 1089.2C327.518 963.204 218.461 817.126 163.513 682.815C108.56 548.489 107.757 426.017 173.949 347.132C240.141 268.248 360.892 247.772 502.72 278.565C644.532 309.354 807.328 391.388 957.481 517.382Z" stroke="#3F83F8" stroke-width="0.618436"/>
<path d="M1003.55 1042.03C877.559 1192.19 731.481 1301.24 597.17 1356.19C462.844 1411.14 340.372 1411.95 261.487 1345.76C182.603 1279.56 162.127 1158.81 192.92 1016.99C223.709 875.173 305.744 712.377 431.737 562.224C557.731 412.071 703.809 303.013 838.12 248.066C972.446 193.113 1094.92 192.309 1173.8 258.502C1252.69 324.694 1273.16 445.444 1242.37 587.272C1211.58 729.084 1129.55 891.88 1003.55 1042.03Z" stroke="#3F83F8" stroke-width="0.618436"/>
<path d="M830.175 447.68C1017.11 506.622 1173.77 599.846 1275.93 702.906C1378.11 805.977 1425.72 918.819 1394.75 1017.03C1363.79 1115.24 1260.06 1180.37 1117.25 1206.19C974.449 1232.02 792.652 1218.53 605.712 1159.58C418.773 1100.64 262.116 1007.42 159.953 904.359C57.778 801.287 10.168 688.446 41.1337 590.235C72.0995 492.024 175.823 426.898 318.638 401.072C461.438 375.248 643.235 388.739 830.175 447.68Z" stroke="#3F83F8" stroke-width="0.618436"/>
<path d="M1073.52 914.76C1014.58 1101.7 921.352 1258.36 818.292 1360.52C715.221 1462.69 602.379 1510.3 504.169 1479.34C405.958 1448.37 340.831 1344.65 315.005 1201.83C289.182 1059.03 302.672 877.237 361.614 690.298C420.556 503.358 513.78 346.701 616.84 244.538C719.911 142.363 832.753 94.7534 930.963 125.719C1029.17 156.685 1094.3 260.408 1120.13 403.224C1145.95 546.024 1132.46 727.821 1073.52 914.76Z" stroke="#3F83F8" stroke-width="0.618436"/>
<path d="M545.937 472.279C719.801 381.771 896.494 336.917 1041.61 337.551C1186.74 338.185 1300.2 384.311 1347.74 475.653C1395.29 566.994 1368 686.389 1285.28 805.637C1202.56 924.871 1064.47 1043.88 890.61 1134.39C716.746 1224.9 540.053 1269.75 394.938 1269.12C249.808 1268.48 136.351 1222.36 88.8018 1131.02C41.2524 1039.68 68.5444 920.281 151.269 801.033C233.984 681.798 372.073 562.787 545.937 472.279Z" stroke="#3F83F8" stroke-width="0.618436"/>
<path d="M1048.29 630.489C1138.79 804.353 1183.65 981.045 1183.01 1126.16C1182.38 1271.29 1136.25 1384.75 1044.91 1432.3C953.57 1479.85 834.176 1452.55 714.928 1369.83C595.693 1287.11 476.682 1149.03 386.174 975.162C295.666 801.297 250.812 624.605 251.446 479.49C252.08 334.359 298.206 220.903 389.548 173.354C480.889 125.804 600.284 153.096 719.532 235.82C838.766 318.535 957.777 456.624 1048.29 630.489Z" stroke="#3F83F8" stroke-width="0.618436"/>
<path d="M1087.28 753.974C1112.87 948.308 1094.58 1129.69 1044.35 1265.83C994.12 1401.99 911.972 1492.83 809.876 1506.27C707.78 1519.71 604.92 1453.23 521.157 1334.71C437.404 1216.21 372.799 1045.74 347.215 851.406C321.63 657.071 339.914 475.693 390.141 339.547C440.375 203.386 522.523 112.547 624.619 99.1061C726.715 85.6649 829.575 152.146 913.338 270.667C997.092 389.174 1061.7 559.64 1087.28 753.974Z" stroke="#3F83F8" stroke-width="0.618436"/>
<path d="M766.799 1171.91C572.465 1197.5 391.087 1179.21 254.941 1128.99C118.779 1078.75 27.9411 996.605 14.5 894.509C1.05878 792.413 67.5402 689.553 186.061 605.79C304.568 522.037 475.034 457.432 669.368 431.848C863.702 406.263 1045.08 424.546 1181.23 474.774C1317.39 525.008 1408.23 607.156 1421.67 709.252C1435.11 811.348 1368.63 914.208 1250.11 997.971C1131.6 1081.72 961.134 1146.33 766.799 1171.91Z" stroke="#3F83F8" stroke-width="0.618436"/>
<path d="M944.81 507.21C1100.32 626.535 1215.64 767.716 1276.39 899.503C1337.15 1031.3 1343.3 1153.62 1280.61 1235.32C1217.92 1317.02 1098.18 1342.74 955.145 1318.16C812.124 1293.59 645.905 1218.73 490.399 1099.41C334.892 980.086 219.567 838.905 158.814 707.118C98.0534 575.317 91.9087 452.997 154.597 371.3C217.285 289.603 337.028 263.879 480.064 288.457C623.084 313.031 789.303 387.886 944.81 507.21Z" stroke="#3F83F8" stroke-width="0.618436"/>
<path d="M1013.73 1029.35C894.402 1184.86 753.22 1300.18 621.434 1360.94C489.633 1421.7 367.313 1427.84 285.616 1365.15C203.919 1302.46 178.195 1182.72 202.772 1039.68C227.347 896.665 302.202 730.445 421.526 574.939C540.85 419.433 682.032 304.108 813.818 243.354C945.62 182.594 1067.94 176.449 1149.64 239.138C1231.33 301.826 1257.06 421.568 1232.48 564.604C1207.91 707.624 1133.05 873.844 1013.73 1029.35Z" stroke="#3F83F8" stroke-width="0.618436"/>
<path d="M814.585 443.123C1003.92 493.854 1164.49 580.156 1271.05 678.662C1377.63 777.178 1430.11 887.836 1403.46 987.304C1376.81 1086.77 1276.02 1156.36 1134.47 1188.39C992.934 1220.42 810.721 1214.87 621.389 1164.14C432.056 1113.41 271.482 1027.11 164.921 928.601C58.3472 830.085 5.86043 719.427 32.5128 619.959C59.1652 520.491 159.949 450.903 301.502 418.871C443.04 386.844 625.252 392.391 814.585 443.123Z" stroke="#3F83F8" stroke-width="0.618436"/>
<path d="M1078.07 899.149C1027.34 1088.48 941.035 1249.06 842.53 1355.62C744.013 1462.19 633.356 1514.68 533.888 1488.02C434.42 1461.37 364.831 1360.59 332.8 1219.04C300.772 1077.5 306.32 895.285 357.051 705.953C407.783 516.62 494.085 356.046 592.59 249.484C691.107 142.911 801.764 90.4244 901.232 117.077C1000.7 143.729 1070.29 244.513 1102.32 386.066C1134.35 527.604 1128.8 709.816 1078.07 899.149Z" stroke="#3F83F8" stroke-width="0.618436"/>
<path d="M531.694 480.103C701.445 382.097 876.013 329.578 1021.02 323.882C1166.04 318.185 1281.4 359.318 1332.89 448.498C1384.37 537.679 1362.32 658.151 1284.87 780.893C1207.44 903.622 1074.67 1028.54 904.92 1126.55C735.169 1224.55 560.601 1277.07 415.597 1282.77C270.577 1288.47 155.216 1247.33 103.728 1158.15C52.2393 1068.97 74.2974 948.501 151.741 825.758C229.177 703.029 361.943 578.108 531.694 480.103Z" stroke="#3F83F8" stroke-width="0.618436"/>
<path d="M1040.46 616.247C1138.47 785.997 1190.99 960.565 1196.68 1105.57C1202.38 1250.59 1161.25 1365.95 1072.07 1417.44C982.886 1468.93 862.415 1446.87 739.672 1369.43C616.943 1291.99 492.022 1159.22 394.016 989.473C296.011 819.722 243.492 645.154 237.796 500.15C232.099 355.129 273.231 239.769 362.412 188.281C451.593 136.792 572.064 158.85 694.807 236.294C817.536 313.729 942.457 446.496 1040.46 616.247Z" stroke="#3F83F8" stroke-width="0.618436"/>
<path d="M1084.81 737.915C1118.85 930.948 1108.49 1112.95 1064.25 1251.16C1020 1389.38 941.895 1483.72 840.483 1501.6C739.071 1519.48 633.409 1457.55 544.556 1342.79C455.712 1228.05 383.734 1060.57 349.697 867.535C315.66 674.501 326.014 492.499 370.256 354.291C414.502 216.068 492.61 121.733 594.022 103.851C695.435 85.9692 801.097 147.901 889.95 262.655C978.793 377.396 1050.77 544.881 1084.81 737.915Z" stroke="#3F83F8" stroke-width="0.618436"/>
<path d="M782.862 1169.43C589.828 1203.47 407.826 1193.12 269.618 1148.87C131.395 1104.63 37.0599 1026.52 19.1781 925.108C1.29637 823.696 63.2279 718.034 177.982 629.181C292.723 540.338 460.208 468.359 653.242 434.322C846.275 400.285 1028.28 410.639 1166.49 454.881C1304.71 499.127 1399.04 577.235 1416.93 678.648C1434.81 780.06 1372.88 885.722 1258.12 974.575C1143.38 1063.42 975.895 1135.4 782.862 1169.43Z" stroke="#3F83F8" stroke-width="0.618436"/>
<path d="M931.712 497.601C1092.28 610.028 1213.65 746.045 1280.09 875.056C1346.54 1004.08 1358.02 1126.02 1298.95 1210.37C1239.89 1294.72 1121.38 1325.65 977.411 1307.33C833.455 1289.02 664.128 1221.49 503.565 1109.06C343.002 996.631 221.629 860.614 155.184 731.603C88.7328 602.577 77.2585 480.642 136.324 396.288C195.389 311.934 313.895 281.012 457.867 299.327C601.823 317.64 771.149 385.173 931.712 497.601Z" stroke="#3F83F8" stroke-width="0.618436"/>
<path d="M1023.33 1016.24C910.902 1176.8 774.885 1298.17 645.874 1364.62C516.848 1431.07 394.913 1442.54 310.559 1383.48C226.205 1324.41 195.283 1205.91 213.598 1061.94C231.911 917.98 299.444 748.653 411.872 588.09C524.299 427.527 660.316 306.153 789.327 239.709C918.352 173.258 1040.29 161.783 1124.64 220.848C1209 279.914 1239.92 398.42 1221.6 542.392C1203.29 686.348 1135.76 855.674 1023.33 1016.24Z" stroke="#3F83F8" stroke-width="0.618436"/>
<path d="M798.81 439.256C990.175 481.68 1154.36 560.896 1265.12 654.66C1375.89 748.434 1433.15 856.696 1410.86 957.232C1388.57 1057.77 1290.92 1131.69 1150.9 1169.86C1010.89 1208.03 828.613 1210.44 637.248 1168.01C445.883 1125.59 281.697 1046.37 170.94 952.61C60.1709 858.836 2.9073 750.573 25.1956 650.037C47.4839 549.502 145.136 475.583 285.158 437.408C425.164 399.237 607.445 396.831 798.81 439.256Z" stroke="#3F83F8" stroke-width="0.618436"/>
<path d="M1081.94 883.353C1039.51 1074.72 960.295 1238.9 866.532 1349.66C772.758 1460.43 664.495 1517.69 563.959 1495.4C463.423 1473.12 389.505 1375.46 351.329 1235.44C313.159 1095.44 310.753 913.156 353.178 721.791C395.602 530.426 474.818 366.24 568.581 255.483C662.355 144.714 770.618 87.4503 871.154 109.739C971.69 132.027 1045.61 229.679 1083.78 369.701C1121.95 509.706 1124.36 691.987 1081.94 883.353Z" stroke="#3F83F8" stroke-width="0.618436"/>
<path d="M517.804 488.538C683.118 383.221 855.229 323.138 999.847 311.122C1144.48 299.105 1261.53 335.167 1316.86 422.016C1372.18 508.866 1355.4 630.185 1283.39 756.189C1211.38 882.179 1084.19 1012.77 918.872 1118.09C753.558 1223.41 581.447 1283.49 436.829 1295.51C292.196 1307.52 175.151 1271.46 119.821 1184.61C64.4918 1097.76 81.274 976.442 153.29 850.438C225.299 724.448 352.49 593.855 517.804 488.538Z" stroke="#3F83F8" stroke-width="0.618436"/>
<path d="M1032.02 602.363C1137.34 767.677 1197.42 939.788 1209.44 1084.41C1221.46 1229.04 1185.4 1346.08 1098.55 1401.41C1011.7 1456.74 890.377 1439.96 764.373 1367.94C638.383 1295.94 507.79 1168.75 402.473 1003.43C297.156 838.117 237.073 666.006 225.057 521.388C213.04 376.754 249.102 259.709 335.951 204.38C422.801 149.05 544.12 165.833 670.124 237.849C796.114 309.857 926.707 437.048 1032.02 602.363Z" stroke="#3F83F8" stroke-width="0.618436"/>
<path d="M1081.63 721.98C1124.06 913.345 1121.65 1095.63 1083.48 1235.63C1045.31 1375.65 971.388 1473.31 870.852 1495.59C770.316 1517.88 662.053 1460.62 568.279 1349.85C474.516 1239.09 395.3 1074.91 352.875 883.541C310.451 692.176 312.857 509.895 351.027 369.889C389.202 229.868 463.121 132.216 563.657 109.927C664.193 87.639 772.456 144.903 866.23 255.672C959.993 366.428 1039.21 530.615 1081.63 721.98Z" stroke="#3F83F8" stroke-width="0.618436"/>
<path d="M798.805 1166.26C607.44 1208.68 425.159 1206.28 285.153 1168.11C145.132 1129.93 47.4792 1056.01 25.1909 955.476C2.90266 854.94 60.1663 746.677 170.935 652.903C281.692 559.14 445.878 479.924 637.243 437.499C828.608 395.075 1010.89 397.481 1150.9 435.651C1290.92 473.826 1388.57 547.745 1410.86 648.281C1433.15 748.817 1375.88 857.08 1265.11 950.854C1154.36 1044.62 990.17 1123.83 798.805 1166.26Z" stroke="#3F83F8" stroke-width="0.618436"/>
<path d="M918.203 488.57C1083.52 593.887 1210.71 724.481 1282.72 850.471C1354.73 976.475 1371.51 1097.79 1316.19 1184.64C1260.86 1271.49 1143.81 1307.55 999.177 1295.54C854.56 1283.52 682.449 1223.44 517.134 1118.12C351.82 1012.8 224.629 882.212 152.621 756.222C80.6043 630.218 63.8221 508.899 119.152 422.049C174.481 335.199 291.526 299.137 436.16 311.154C580.777 323.17 752.888 383.254 918.203 488.57Z" stroke="#3F83F8" stroke-width="0.618436"/>
<path d="M1032.36 1002.72C927.044 1168.03 796.451 1295.22 670.461 1367.23C544.457 1439.25 423.138 1456.03 336.288 1400.7C249.438 1345.37 213.377 1228.32 225.394 1083.69C237.41 939.073 297.493 766.962 402.81 601.648C508.127 436.334 638.72 309.143 764.71 237.134C890.714 165.118 1012.03 148.336 1098.88 203.665C1185.73 258.995 1221.79 376.039 1209.78 520.673C1197.76 665.291 1137.68 837.402 1032.36 1002.72Z" stroke="#3F83F8" stroke-width="0.618436"/>
<path d="M782.888 436.079C975.921 470.116 1143.41 542.094 1258.15 630.938C1372.9 719.791 1434.83 825.452 1416.95 926.865C1399.07 1028.28 1304.73 1106.39 1166.51 1150.63C1028.3 1194.87 846.301 1205.23 653.268 1171.19C460.235 1137.15 292.749 1065.17 178.008 976.332C63.2541 887.479 1.32259 781.817 19.2043 680.404C37.0861 578.992 131.421 500.884 269.644 456.638C407.852 412.396 589.854 402.042 782.888 436.079Z" stroke="#3F83F8" stroke-width="0.618436"/>
<path d="M1085.11 867.404C1051.07 1060.44 979.096 1227.92 890.253 1342.66C801.4 1457.42 695.738 1519.35 594.326 1501.47C492.913 1483.59 414.805 1389.25 370.559 1251.03C326.317 1112.82 315.963 930.817 350 737.784C384.037 544.751 456.016 377.265 544.859 262.524C633.712 147.77 739.374 85.8387 840.786 103.72C942.198 121.602 1020.31 215.937 1064.55 354.16C1108.79 492.368 1119.15 674.371 1085.11 867.404Z" stroke="#3F83F8" stroke-width="0.618436"/>
<path d="M504.294 497.57C664.857 385.142 834.183 317.609 978.139 299.296C1122.11 280.982 1240.62 311.904 1299.68 396.257C1358.75 480.611 1347.27 602.547 1280.82 731.572C1214.38 860.583 1093 996.6 932.441 1109.03C771.878 1221.45 602.551 1288.99 458.595 1307.3C314.624 1325.62 196.117 1294.69 137.052 1210.34C77.9869 1125.99 89.4613 1004.05 155.913 875.025C222.357 746.014 343.731 609.997 504.294 497.57Z" stroke="#3F83F8" stroke-width="0.618436"/>
<path d="M1022.99 588.856C1135.42 749.419 1202.96 918.746 1221.27 1062.7C1239.58 1206.67 1208.66 1325.18 1124.31 1384.25C1039.95 1443.31 918.018 1431.84 788.993 1365.38C659.982 1298.94 523.965 1177.57 411.537 1017C299.11 856.44 231.577 687.114 213.264 543.158C194.949 399.186 225.871 280.68 310.225 221.615C394.579 162.55 516.514 174.024 645.539 240.475C774.55 306.92 910.567 428.293 1022.99 588.856Z" stroke="#3F83F8" stroke-width="0.618436"/>
<path d="M1077.77 706.195C1128.5 895.528 1134.05 1077.74 1102.02 1219.28C1069.99 1360.83 1000.4 1461.62 900.934 1488.27C801.466 1514.92 690.808 1462.43 592.292 1355.86C493.786 1249.3 407.485 1088.72 356.753 899.391C306.022 710.059 300.474 527.846 332.502 386.309C364.533 244.755 434.121 143.972 533.589 117.319C633.057 90.667 743.715 143.154 842.231 249.727C940.737 356.289 1027.04 516.863 1077.77 706.195Z" stroke="#3F83F8" stroke-width="0.618436"/>
<path d="M814.586 1162.39C625.254 1213.12 443.041 1218.67 301.504 1186.64C159.95 1154.61 59.1667 1085.02 32.5144 985.553C5.86198 886.085 58.3488 775.427 164.922 676.911C271.484 578.406 432.058 492.104 621.39 441.372C810.723 390.641 992.935 385.093 1134.47 417.121C1276.03 449.152 1376.81 518.74 1403.46 618.209C1430.11 717.677 1377.63 828.334 1271.05 926.85C1164.49 1025.36 1003.92 1111.66 814.586 1162.39Z" stroke="#3F83F8" stroke-width="0.618436"/>
<path d="M904.312 480.136C1074.06 578.142 1206.83 703.063 1284.27 825.792C1361.71 948.535 1383.77 1069.01 1332.28 1158.19C1280.79 1247.37 1165.43 1288.5 1020.41 1282.8C875.405 1277.11 700.837 1224.59 531.087 1126.58C361.336 1028.58 228.569 903.656 151.134 780.927C73.69 658.184 51.6319 537.712 103.12 448.532C154.609 359.351 269.969 318.218 414.99 323.915C559.994 329.612 734.562 382.13 904.312 480.136Z" stroke="#3F83F8" stroke-width="0.618436"/>
<path d="M1040.79 988.818C942.786 1158.57 817.865 1291.34 695.136 1368.77C572.393 1446.21 451.922 1468.27 362.741 1416.78C273.56 1365.3 232.428 1249.94 238.125 1104.91C243.821 959.911 296.34 785.343 394.345 615.592C492.351 445.841 617.272 313.075 740.001 235.639C862.744 158.195 983.215 136.137 1072.4 187.626C1161.58 239.114 1202.71 354.475 1197.01 499.495C1191.32 644.499 1138.8 819.067 1040.79 988.818Z" stroke="#3F83F8" stroke-width="0.618436"/>
<path d="M766.832 433.599C961.166 459.184 1131.63 523.788 1250.14 607.542C1368.66 691.305 1435.14 794.165 1421.7 896.261C1408.26 998.357 1317.42 1080.5 1181.26 1130.74C1045.11 1180.97 863.735 1199.25 669.4 1173.67C475.066 1148.08 304.601 1083.48 186.093 999.722C67.5727 915.959 1.09122 813.1 14.5324 711.004C27.9736 608.908 118.812 526.759 254.973 476.526C391.12 426.298 572.497 408.015 766.832 433.599Z" stroke="#3F83F8" stroke-width="0.618436"/>
<path d="M1087.58 851.329C1062 1045.66 997.394 1216.13 913.641 1334.64C829.878 1453.16 727.018 1519.64 624.922 1506.2C522.826 1492.76 440.678 1401.92 390.444 1265.76C340.216 1129.61 321.933 948.232 347.518 753.897C373.102 559.563 437.707 389.098 521.46 270.59C605.223 152.07 708.083 85.5883 810.179 99.0295C912.275 112.471 994.423 203.309 1044.66 339.47C1094.88 475.617 1113.17 656.994 1087.58 851.329Z" stroke="#3F83F8" stroke-width="0.618436"/>
<path d="M491.188 507.183C646.694 387.859 812.913 313.004 955.933 288.429C1098.97 263.852 1218.71 289.575 1281.4 371.272C1344.09 452.969 1337.94 575.289 1277.18 707.091C1216.43 838.877 1101.1 980.059 945.599 1099.38C790.092 1218.71 623.873 1293.56 480.853 1318.14C337.817 1342.71 218.074 1316.99 155.386 1235.29C92.6976 1153.6 98.8423 1031.28 159.603 899.475C220.356 767.689 335.681 626.507 491.188 507.183Z" stroke="#3F83F8" stroke-width="0.618436"/>
<path d="M1013.38 575.756C1132.7 731.263 1207.56 897.482 1232.13 1040.5C1256.71 1183.54 1230.99 1303.28 1149.29 1365.97C1067.59 1428.66 945.273 1422.51 813.472 1361.75C681.685 1301 540.503 1185.67 421.179 1030.17C301.855 874.661 227 708.442 202.426 565.422C177.848 422.386 203.572 302.643 285.269 239.955C366.966 177.267 489.286 183.411 621.087 244.172C752.873 304.925 894.055 420.25 1013.38 575.756Z" stroke="#3F83F8" stroke-width="0.618436"/>
<path d="M1073.22 690.594C1132.16 877.534 1145.65 1059.33 1119.83 1202.13C1094 1344.95 1028.88 1448.67 930.667 1479.64C832.456 1510.6 719.614 1462.99 616.543 1360.82C513.483 1258.65 420.259 1102 361.317 915.057C302.376 728.117 288.885 546.32 314.709 403.52C340.535 260.705 405.661 156.981 503.872 126.016C602.083 95.0499 714.924 142.66 817.996 244.835C921.056 346.998 1014.28 503.655 1073.22 690.594Z" stroke="#3F83F8" stroke-width="0.618436"/>
<path d="M830.184 1157.84C643.245 1216.78 461.448 1230.27 318.648 1204.45C175.832 1178.62 72.1086 1113.49 41.1429 1015.28C10.1771 917.071 57.7872 804.23 159.962 701.158C262.125 598.098 418.782 504.874 605.722 445.933C792.661 386.991 974.458 373.501 1117.26 399.324C1260.07 425.15 1363.8 490.276 1394.76 588.487C1425.73 686.698 1378.12 799.54 1275.94 902.611C1173.78 1005.67 1017.12 1098.89 830.184 1157.84Z" stroke="#3F83F8" stroke-width="0.618436"/>
<path d="M890.065 472.319C1063.93 562.827 1202.02 681.838 1284.73 801.072C1367.46 920.32 1394.75 1039.71 1347.2 1131.06C1299.65 1222.4 1186.19 1268.52 1041.06 1269.16C895.948 1269.79 719.256 1224.94 545.392 1134.43C371.527 1043.92 233.438 924.911 150.723 805.676C67.9991 686.428 40.7071 567.034 88.2565 475.692C135.806 384.35 249.262 338.225 394.393 337.591C539.508 336.957 716.201 381.811 890.065 472.319Z" stroke="#3F83F8" stroke-width="0.618436"/>
<path d="M1048.6 974.562C958.096 1148.43 839.085 1286.52 719.851 1369.23C600.603 1451.95 481.208 1479.25 389.867 1431.7C298.525 1384.15 252.399 1270.69 251.765 1125.56C251.131 980.446 295.985 803.753 386.493 629.889C477.001 456.025 596.012 317.936 715.247 235.221C834.495 152.497 953.889 125.205 1045.23 172.754C1136.57 220.304 1182.7 333.76 1183.33 478.891C1183.97 624.005 1139.11 800.698 1048.6 974.562Z" stroke="#3F83F8" stroke-width="0.618436"/>
<path d="M750.69 431.821C945.955 448.905 1119.08 506.012 1241.12 584.517C1363.19 663.03 1434.09 762.892 1425.12 865.477C1416.14 968.062 1328.97 1054.09 1195.13 1110.22C1061.31 1166.34 880.898 1192.52 685.632 1175.43C490.367 1158.35 317.245 1101.24 195.198 1022.74C73.1363 944.223 2.23139 844.361 11.2064 741.776C20.1814 639.191 107.35 553.159 241.191 497.034C375.017 440.915 555.424 414.738 750.69 431.821Z" stroke="#3F83F8" stroke-width="0.618436"/>
<path d="M1089.35 835.163C1072.27 1030.43 1015.16 1203.55 936.658 1325.6C858.144 1447.66 758.282 1518.56 655.697 1509.59C553.112 1500.61 467.08 1413.44 410.955 1279.6C354.836 1145.78 328.659 965.371 345.742 770.105C362.826 574.84 419.933 401.719 498.438 279.671C576.951 157.61 676.813 86.7047 779.398 95.6797C881.983 104.655 968.016 191.823 1024.14 325.664C1080.26 459.49 1106.44 639.897 1089.35 835.163Z" stroke="#3F83F8" stroke-width="0.618436"/>
<path d="M478.518 517.359C628.672 391.366 791.468 309.332 933.28 278.542C1075.11 247.749 1195.86 268.225 1262.05 347.11C1328.24 425.994 1327.44 548.466 1272.49 682.792C1217.54 817.103 1108.48 963.181 958.328 1089.17C808.175 1215.17 645.379 1297.2 503.567 1327.99C361.739 1358.79 240.988 1338.31 174.796 1259.42C108.604 1180.54 109.407 1058.07 164.361 923.742C219.308 789.431 328.365 643.353 478.518 517.359Z" stroke="#3F83F8" stroke-width="0.618436"/>
<path d="M1003.2 563.092C1129.19 713.245 1211.23 876.041 1242.02 1017.85C1272.81 1159.68 1252.33 1280.43 1173.45 1346.62C1094.56 1412.82 972.093 1412.01 837.767 1357.06C703.456 1302.11 557.379 1193.05 431.385 1042.9C305.391 892.748 223.357 729.952 192.568 588.14C161.775 446.312 182.25 325.562 261.135 259.369C340.02 193.177 462.492 193.981 596.818 248.934C731.129 303.881 877.207 412.938 1003.2 563.092Z" stroke="#3F83F8" stroke-width="0.618436"/>
<path d="M1068 675.209C1135.04 859.4 1156.44 1040.44 1136.87 1184.23C1117.3 1328.03 1056.76 1434.5 959.995 1469.72C863.228 1504.94 748.417 1462.3 640.987 1364.71C533.569 1267.14 433.601 1114.7 366.561 930.511C299.521 746.321 278.114 565.285 297.683 421.495C317.255 277.688 377.796 171.223 474.562 136.003C571.329 100.783 686.14 143.425 793.57 241.007C900.988 338.577 1000.96 491.019 1068 675.209Z" stroke="#3F83F8" stroke-width="0.618436"/>
<path d="M845.577 1152.6C661.386 1219.64 480.351 1241.05 336.56 1221.48C192.754 1201.91 86.2886 1141.37 51.0684 1044.6C15.8482 947.836 58.4909 833.025 156.072 725.595C253.643 618.177 406.085 518.209 590.275 451.169C774.466 384.129 955.501 362.722 1099.29 382.291C1243.1 401.863 1349.56 462.403 1384.78 559.17C1420 655.937 1377.36 770.748 1279.78 878.178C1182.21 985.596 1029.77 1085.56 845.577 1152.6Z" stroke="#3F83F8" stroke-width="0.618436"/>
<path d="M875.493 465.129C1053.14 547.967 1196.29 660.842 1284.13 776.355C1371.97 891.881 1404.45 1009.97 1360.93 1103.3C1317.41 1196.63 1206.07 1247.66 1061.11 1254.62C916.156 1261.59 737.675 1224.48 560.029 1141.64C382.382 1058.81 239.233 945.932 151.396 830.419C63.5492 714.893 31.0753 596.803 74.5952 503.474C118.115 410.145 229.452 359.114 374.417 352.15C519.365 345.187 697.846 382.291 875.493 465.129Z" stroke="#3F83F8" stroke-width="0.618436"/>
<path d="M1055.79 959.978C972.95 1137.62 860.075 1280.77 744.562 1368.61C629.036 1456.46 510.946 1488.93 417.617 1445.41C324.288 1401.89 273.258 1290.56 266.294 1145.59C259.33 1000.64 296.435 822.161 379.273 644.514C462.111 466.868 574.985 323.719 690.498 235.882C806.024 148.035 924.114 115.561 1017.44 159.081C1110.77 202.6 1161.8 313.937 1168.77 458.902C1175.73 603.851 1138.63 782.332 1055.79 959.978Z" stroke="#3F83F8" stroke-width="0.618436"/>
<path d="M734.486 430.75C930.31 439.3 1105.76 488.801 1231.11 561.908C1356.48 635.022 1431.68 731.696 1427.19 834.575C1422.69 937.454 1339.36 1027.21 1208.1 1089.12C1076.84 1151.02 897.751 1185.04 701.926 1176.49C506.101 1167.94 330.654 1118.44 205.298 1045.33C79.9278 972.219 4.73453 875.545 9.22632 772.666C13.7181 669.787 97.051 580.034 228.316 518.125C359.567 456.222 538.661 422.2 734.486 430.75Z" stroke="#3F83F8" stroke-width="0.618436"/>
<path d="M1090.42 818.935C1081.87 1014.76 1032.37 1190.21 959.267 1315.56C886.152 1440.93 789.478 1516.13 686.599 1511.63C583.721 1507.14 493.968 1423.81 432.058 1292.54C370.156 1161.29 336.134 982.2 344.683 786.376C353.233 590.551 402.735 415.103 475.841 289.747C548.956 164.378 645.63 89.1842 748.509 93.676C851.388 98.1678 941.141 181.501 1003.05 312.766C1064.95 444.016 1098.97 623.111 1090.42 818.935Z" stroke="#3F83F8" stroke-width="0.618436"/>
<path d="M466.296 528.08C610.811 395.657 769.874 306.6 910.208 269.654C1050.56 232.703 1172.09 247.893 1241.66 323.815C1311.23 399.738 1315.77 522.128 1266.72 658.723C1217.69 795.303 1115.11 945.999 970.592 1078.42C826.077 1210.85 667.014 1299.9 526.68 1336.85C386.331 1373.8 264.802 1358.61 195.232 1282.69C125.661 1206.76 121.122 1084.37 170.164 947.779C219.2 811.199 321.782 660.503 466.296 528.08Z" stroke="#3F83F8" stroke-width="0.618436"/>
<path d="M992.477 550.879C1124.9 695.394 1213.96 854.457 1250.9 994.791C1287.85 1135.14 1272.66 1256.67 1196.74 1326.24C1120.82 1395.81 998.43 1400.35 861.834 1351.31C725.254 1302.27 574.559 1199.69 442.135 1055.17C309.712 910.66 220.655 751.597 183.709 611.263C146.759 470.914 161.948 349.385 237.871 279.815C313.793 210.245 436.183 205.705 572.778 254.747C709.358 303.783 860.054 406.365 992.477 550.879Z" stroke="#3F83F8" stroke-width="0.618436"/>
</svg>
